# xmcd
#
# Track frame offsets:
#	150
#	16465
#	32067
#
# Disc length: 800 seconds
#
# Revision: 1
# Processed by: cddbd v1.5.1PL0 Copyright (c) Steve Scherf et al.
# Submitted via: CDex 1.50Beta5
#
DISCID=1b031e03
DTITLE=THE STREET BEATS - Spirit Of Combat
DYEAR=2003
DGENRE=Rock
TTITLE0=Spirit Of Combat
TTITLE1=Clash City Rockers
TTITLE2=つながった空の下
EXTD=
EXTT0=
EXTT1=
EXTT2=
PLAYORDER=
